{
	"asset":{
		"generator":"Khronos glTF Blender I/O v3.5.30",
		"version":"2.0"
	},
	"extensionsUsed":[
		"KHR_materials_specular",
		"KHR_materials_ior"
	],
	"scene":0,
	"scenes":[
		{
			"name":"Scene",
			"nodes":[
				0,
				1,
				2,
				3,
				4
			]
		}
	],
	"nodes":[
		{
			"mesh":0,
			"name":"FrontRightWheel"
		},
		{
			"mesh":1,
			"name":"RearRightWheel"
		},
		{
			"mesh":2,
			"name":"RearLeftWheel"
		},
		{
			"mesh":3,
			"name":"Body.001"
		},
		{
			"mesh":4,
			"name":"FrontLeftWheel"
		}
	],
	"materials":[
		{
			"doubleSided":true,
			"extensions":{
				"KHR_materials_specular":{
					"specularColorFactor":[
						2.371357614441398,
						2.371357614441398,
						2.371357614441398
					]
				},
				"KHR_materials_ior":{
					"ior":1.4500000476837158
				}
			},
			"name":"TextureAtlas",
			"pbrMetallicRoughness":{
				"baseColorTexture":{
					"index":0
				},
				"roughnessFactor":0.5527864098548889
			}
		},
		{
			"doubleSided":true,
			"extensions":{
				"KHR_materials_specular":{
					"specularColorFactor":[
						2.371357614441398,
						2.371357614441398,
						2.371357614441398
					]
				},
				"KHR_materials_ior":{
					"ior":1.4500000476837158
				}
			},
			"name":"Lights",
			"pbrMetallicRoughness":{
				"baseColorFactor":[
					0.800000011920929,
					0.800000011920929,
					0.800000011920929,
					1
				],
				"roughnessFactor":0.5527864098548889
			}
		}
	],
	"meshes":[
		{
			"name":"Cylinder.002",
			"primitives":[
				{
					"attributes":{
						"POSITION":0,
						"TEXCOORD_0":1,
						"NORMAL":2
					},
					"indices":3,
					"material":0
				}
			]
		},
		{
			"name":"Cylinder.001",
			"primitives":[
				{
					"attributes":{
						"POSITION":4,
						"TEXCOORD_0":5,
						"NORMAL":6
					},
					"indices":3,
					"material":0
				}
			]
		},
		{
			"name":"Cylinder.000",
			"primitives":[
				{
					"attributes":{
						"POSITION":7,
						"TEXCOORD_0":8,
						"NORMAL":9
					},
					"indices":10,
					"material":0
				}
			]
		},
		{
			"name":"Plane.002",
			"primitives":[
				{
					"attributes":{
						"POSITION":11,
						"TEXCOORD_0":12,
						"NORMAL":13
					},
					"indices":14,
					"material":0
				},
				{
					"attributes":{
						"POSITION":15,
						"TEXCOORD_0":16,
						"NORMAL":17
					},
					"indices":18,
					"material":1
				}
			]
		},
		{
			"name":"Cylinder.005",
			"primitives":[
				{
					"attributes":{
						"POSITION":19,
						"TEXCOORD_0":20,
						"NORMAL":21
					},
					"indices":10,
					"material":0
				}
			]
		}
	],
	"textures":[
		{
			"sampler":0,
			"source":0
		}
	],
	"images":[
		{
			"bufferView":4,
			"mimeType":"image/png",
			"name":"PCC_TextureAtlas-red"
		}
	],
	"accessors":[
		{
			"bufferView":0,
			"componentType":5126,
			"count":831,
			"max":[
				-0.5145373344421387,
				0.36352038383483887,
				1.162431240081787
			],
			"min":[
				-0.6955324411392212,
				-0.10839438438415527,
				0.6905164122581482
			],
			"type":"VEC3"
		},
		{
			"bufferView":1,
			"componentType":5126,
			"count":831,
			"type":"VEC2"
		},
		{
			"bufferView":2,
			"componentType":5126,
			"count":831,
			"type":"VEC3"
		},
		{
			"bufferView":3,
			"componentType":5123,
			"count":1302,
			"type":"SCALAR"
		},
		{
			"bufferView":5,
			"componentType":5126,
			"count":831,
			"max":[
				-0.5087007284164429,
				0.3796348571777344,
				-0.6829913258552551
			],
			"min":[
				-0.7020567059516907,
				-0.12450885772705078,
				-1.1871352195739746
			],
			"type":"VEC3"
		},
		{
			"bufferView":6,
			"componentType":5126,
			"count":831,
			"type":"VEC2"
		},
		{
			"bufferView":7,
			"componentType":5126,
			"count":831,
			"type":"VEC3"
		},
		{
			"bufferView":8,
			"componentType":5126,
			"count":831,
			"max":[
				0.7020566463470459,
				0.3796348571777344,
				-0.6829913854598999
			],
			"min":[
				0.5087008476257324,
				-0.12450885772705078,
				-1.187135100364685
			],
			"type":"VEC3"
		},
		{
			"bufferView":9,
			"componentType":5126,
			"count":831,
			"type":"VEC2"
		},
		{
			"bufferView":10,
			"componentType":5126,
			"count":831,
			"type":"VEC3"
		},
		{
			"bufferView":11,
			"componentType":5123,
			"count":1302,
			"type":"SCALAR"
		},
		{
			"bufferView":12,
			"componentType":5126,
			"count":3232,
			"max":[
				0.6564000248908997,
				0.8800514936447144,
				1.6181825399398804
			],
			"min":[
				-0.6564000248908997,
				0.11617539823055267,
				-1.631266713142395
			],
			"type":"VEC3"
		},
		{
			"bufferView":13,
			"componentType":5126,
			"count":3232,
			"type":"VEC2"
		},
		{
			"bufferView":14,
			"componentType":5126,
			"count":3232,
			"type":"VEC3"
		},
		{
			"bufferView":15,
			"componentType":5123,
			"count":7656,
			"type":"SCALAR"
		},
		{
			"bufferView":16,
			"componentType":5126,
			"count":204,
			"max":[
				0.5528414249420166,
				0.5306344032287598,
				1.3762010335922241
			],
			"min":[
				-0.5528414249420166,
				0.35189157724380493,
				-1.570428490638733
			],
			"type":"VEC3"
		},
		{
			"bufferView":17,
			"componentType":5126,
			"count":204,
			"type":"VEC2"
		},
		{
			"bufferView":18,
			"componentType":5126,
			"count":204,
			"type":"VEC3"
		},
		{
			"bufferView":19,
			"componentType":5123,
			"count":588,
			"type":"SCALAR"
		},
		{
			"bufferView":20,
			"componentType":5126,
			"count":831,
			"max":[
				0.6955323219299316,
				0.36352038383483887,
				1.162431240081787
			],
			"min":[
				0.5145374536514282,
				-0.10839438438415527,
				0.6905164122581482
			],
			"type":"VEC3"
		},
		{
			"bufferView":21,
			"componentType":5126,
			"count":831,
			"type":"VEC2"
		},
		{
			"bufferView":22,
			"componentType":5126,
			"count":831,
			"type":"VEC3"
		}
	],
	"bufferViews":[
		{
			"buffer":0,
			"byteLength":9972,
			"byteOffset":0,
			"target":34962
		},
		{
			"buffer":0,
			"byteLength":6648,
			"byteOffset":9972,
			"target":34962
		},
		{
			"buffer":0,
			"byteLength":9972,
			"byteOffset":16620,
			"target":34962
		},
		{
			"buffer":0,
			"byteLength":2604,
			"byteOffset":26592,
			"target":34963
		},
		{
			"buffer":0,
			"byteLength":3260,
			"byteOffset":29196
		},
		{
			"buffer":0,
			"byteLength":9972,
			"byteOffset":32456,
			"target":34962
		},
		{
			"buffer":0,
			"byteLength":6648,
			"byteOffset":42428,
			"target":34962
		},
		{
			"buffer":0,
			"byteLength":9972,
			"byteOffset":49076,
			"target":34962
		},
		{
			"buffer":0,
			"byteLength":9972,
			"byteOffset":59048,
			"target":34962
		},
		{
			"buffer":0,
			"byteLength":6648,
			"byteOffset":69020,
			"target":34962
		},
		{
			"buffer":0,
			"byteLength":9972,
			"byteOffset":75668,
			"target":34962
		},
		{
			"buffer":0,
			"byteLength":2604,
			"byteOffset":85640,
			"target":34963
		},
		{
			"buffer":0,
			"byteLength":38784,
			"byteOffset":88244,
			"target":34962
		},
		{
			"buffer":0,
			"byteLength":25856,
			"byteOffset":127028,
			"target":34962
		},
		{
			"buffer":0,
			"byteLength":38784,
			"byteOffset":152884,
			"target":34962
		},
		{
			"buffer":0,
			"byteLength":15312,
			"byteOffset":191668,
			"target":34963
		},
		{
			"buffer":0,
			"byteLength":2448,
			"byteOffset":206980,
			"target":34962
		},
		{
			"buffer":0,
			"byteLength":1632,
			"byteOffset":209428,
			"target":34962
		},
		{
			"buffer":0,
			"byteLength":2448,
			"byteOffset":211060,
			"target":34962
		},
		{
			"buffer":0,
			"byteLength":1176,
			"byteOffset":213508,
			"target":34963
		},
		{
			"buffer":0,
			"byteLength":9972,
			"byteOffset":214684,
			"target":34962
		},
		{
			"buffer":0,
			"byteLength":6648,
			"byteOffset":224656,
			"target":34962
		},
		{
			"buffer":0,
			"byteLength":9972,
			"byteOffset":231304,
			"target":34962
		}
	],
	"samplers":[
		{
			"magFilter":9728,
			"minFilter":9984
		}
	],
	"buffers":[
		{
			"byteLength":241276,
			"uri":"data:application/octet-stream;base64,"
		}
	]
}
